<?xml version="1.0" standalone="no"?>
<!DOCTYPE svg PUBLIC "-//W3C//DTD SVG 20010904//EN"
 "http://www.w3.org/TR/2001/REC-SVG-20010904/DTD/svg10.dtd">
<svg version="1.0" xmlns="http://www.w3.org/2000/svg"
 width="840.000000pt" height="572.000000pt" viewBox="0 0 840.000000 572.000000"
 preserveAspectRatio="xMidYMid meet">

<g transform="translate(0.000000,572.000000) scale(0.100000,-0.100000)"
fill="#000000" stroke="none">
<path d="M3905 5410 c-920 -82 -1610 -414 -1785 -861 -72 -184 -7 -383 190
-579 52 -52 129 -118 170 -146 459 -313 1169 -478 1910 -443 481 23 907 121
1260 290 193 93 323 181 441 298 188 188 257 380 198 553 -147 432 -784 770
-1649 873 -158 19 -588 28 -735 15z"/>
<path d="M2082 3620 c4 -246 6 -282 25 -338 72 -215 295 -430 608 -585 453
-224 1039 -331 1674 -305 487 20 948 130 1315 314 297 149 519 367 589 576 18
56 21 93 24 338 l4 275 -78 -76 c-336 -329 -860 -540 -1553 -626 -180 -22
-758 -25 -939 -5 -694 78 -1244 294 -1584 621 l-89 86 4 -275z"/>
<path d="M2082 2595 c4 -281 7 -315 25 -365 49 -133 102 -209 229 -329 400
-379 1241 -609 2061 -562 507 28 922 126 1279 301 329 162 530 353 616 587 20
53 22 82 26 366 2 169 1 307 -2 307 -3 0 -27 -23 -53 -51 -183 -196 -497 -376
-863 -496 -196 -64 -507 -128 -745 -153 -164 -18 -603 -24 -775 -11 -747 57
-1344 278 -1718 636 l-84 80 4 -310z"/>
<path d="M2080 1599 c0 -316 7 -367 65 -484 78 -156 175 -258 376 -391 608
-403 1701 -537 2584 -318 597 148 1017 412 1162 729 45 99 53 165 53 459 l0
258 -99 -94 c-447 -429 -1293 -667 -2225 -627 -773 34 -1439 264 -1817 627
l-99 94 0 -253z"/>
</g>
</svg>
